#!OML:ASF H:\charlestonDancing\Project 1\Capture day 1\Session 1\femaleDancer.ASF
:FULLY-SPECIFIED
:DEGREES
206
root 3.84583 17.378 -1.48406 -87.2539 -95.8223 101.665
lowerback 17.96 1.68436 8.9579
upperback 1.86169 3.85674 0.234825
thorax -7.45943 1.53243 -5.72897
lowerneck -1.75593 1.16773 -0.901781
upperneck 3.74204 1.68937 -3.40056
head 1.47688 0.757385 -0.874578
rclavicle -3.42904e-014 2.5842e-015
rhumerus -41.3715 9.65849 -80.532
rradius 33.9915
rwrist 17.2827
rhand -32.6144 -36.6272
rfingers 7.12502
rthumb -5.84198 -66.5266
lclavicle -3.42904e-014 2.5842e-015
lhumerus -17.7933 25.3715 12.6217
lradius 140.594
lwrist 5.76818
lhand -1.90266 19.3449
lfingers 7.12502
lthumb 23.7667 47.8951
rfemur -5.66 -8.68895 31.9495
rtibia 22.8855
rfoot -23.2787 -1.59661
rtoes -16.2372
lfemur -51.2874 0.526635 -17.9548
ltibia 65.0181
lfoot 6.82804 -20.2456
ltoes -6.95124
207
root 3.76637 17.4418 -1.48319 -91.1739 -95.2969 105.389
lowerback 17.7997 1.66955 8.5441
upperback 1.74544 3.74878 0.12321
thorax -7.53585 1.4888 -5.58873
lowerneck -1.92554 1.22493 -0.629288
upperneck 4.316 1.78163 -3.54241
head 1.69715 0.792758 -0.964434
rclavicle 6.97734e-014 -1.70955e-014
rhumerus -42.0388 9.13166 -80.4219
rradius 32.0048
rwrist 16.0103
rhand -32.2537 -36.0339
rfingers 7.12502
rthumb -5.49364 -65.9427
lclavicle 6.97734e-014 -1.70955e-014
lhumerus -18.0415 24.2063 13.687
lradius 140.793
lwrist 5.41168
lhand -1.9977 18.8637
lfingers 7.12502
lthumb 23.6756 47.4256
rfemur -4.86199 -8.48253 31.351
rtibia 22.0972
rfoot -22.2133 -2.23241
rtoes -19.8568
lfemur -50.6458 0.311897 -18.8602
ltibia 63.1908
lfoot 4.74507 -20.8433
ltoes -7.22508
208
root 3.67508 17.5301 -1.48277 -100.91 -94.7907 115.045
lowerback 17.5313 1.56459 8.07249
upperback 1.58013 3.5058 -0.0177284
thorax -7.62677 1.3816 -5.41361
lowerneck -2.20474 1.17731 -0.38182
upperneck 5.04536 1.73275 -3.51445
head 1.98476 0.758338 -1.00044
rclavicle 5.63555e-014 -2.52457e-014
rhumerus -42.8942 7.90911 -79.9592
rradius 30.4871
rwrist 16.1664
rhand -31.9857 -35.4423
rfingers 7.12502
rthumb -5.23493 -65.3576
lclavicle 5.63555e-014 -2.52457e-014
lhumerus -18.3324 22.7882 14.9733
lradius 141.117
lwrist 4.87242
lhand -2.05744 18.2958
lfingers 7.12502
lthumb 23.6183 46.8652
rfemur -4.2205 -8.35544 30.6712
rtibia 21.3275
rfoot -20.8695 -2.49819
rtoes -21.9289
lfemur -49.8144 -0.316924 -19.909
ltibia 60.7737
lfoot 3.37632 -20.2819
ltoes -2.98628
209
root 3.57638 17.6283 -1.48314 -112.248 -94.6605 126.36
lowerback 17.2875 1.45444 7.76752
upperback 1.37033 3.29656 -0.121862
thorax -7.76453 1.28252 -5.30295
lowerneck -2.60069 1.08252 -0.0758024
upperneck 5.85407 1.61484 -3.41699
head 2.3219 0.692189 -1.02755
rclavicle 4.96962e-015 -2.42517e-014
rhumerus -43.8505 6.0256 -79.104
rradius 29.3323
rwrist 17.6247
rhand -31.8331 -34.8898
rfingers 7.12502
rthumb -5.08754 -64.8087
lclavicle 4.96962e-015 -2.42517e-014
lhumerus -18.7054 21.2885 16.247
lradius 141.62
lwrist 4.31034
lhand -1.84173 17.9467
lfingers 7.12502
lthumb 23.8252 46.4893
rfemur -3.86843 -7.98601 30.2079
rtibia 20.9541
rfoot -19.1883 -2.6802
rtoes -22.2345
lfemur -48.8678 -1.01215 -20.7345
ltibia 58.0155
lfoot 1.5572 -19.5047
ltoes -6.4229
210
root 3.41723 17.727 -1.46829 -125.509 -94.7146 139.459
lowerback 16.4611 1.28883 7.51065
upperback 1.3514 2.95978 -0.262788
thorax -7.38166 1.15056 -5.19621
lowerneck -2.86283 0.983018 0.147202
upperneck 6.48004 1.47778 -3.23933
head 2.57556 0.623181 -1.01583
rclavicle 1.68967e-015 -1.11319e-014
rhumerus -44.7662 4.07648 -78.0861
rradius 28.413
rwrist 19.6351
rhand -31.9171 -34.4839
rfingers 7.12502
rthumb -5.16867 -64.4009
lclavicle 1.68967e-015 -1.11319e-014
lhumerus -19.2121 19.8511 17.315
lradius 142.238
lwrist 3.946
lhand -1.52388 17.8006
lfingers 7.12502
lthumb 24.13 46.303
rfemur -3.22582 -8.71332 29.412
rtibia 20.9915
rfoot -17.5541 -2.50971
rtoes -24.5768
lfemur -47.2441 -1.80142 -21.7426
ltibia 55.0683
lfoot -0.00100703 -19.2214
ltoes -10.8292
211
root 3.26008 17.8034 -1.46477 -132.654 -94.8288 146.372
lowerback 15.8052 1.23627 7.11662
upperback 1.33572 2.77178 -0.300822
thorax -7.07866 1.08907 -4.94423
lowerneck -2.92535 0.885657 0.409504
upperneck 6.91617 1.33228 -3.08328
head 2.73136 0.556071 -1.01803
rclavicle 5.96354e-016 2.0276e-014
rhumerus -45.6263 2.48163 -77.165
rradius 27.7737
rwrist 21.5141
rhand -32.1494 -34.3567
rfingers 7.12502
rthumb -5.39295 -64.268
lclavicle 5.96354e-016 2.0276e-014
lhumerus -19.7835 18.4976 18.3471
lradius 142.863
lwrist 3.68646
lhand -1.26241 17.5571
lfingers 7.12502
lthumb 24.3807 46.026
rfemur -2.80338 -9.05305 28.9304
rtibia 21.6319
rfoot -15.6964 -2.64828
rtoes -28.4175
lfemur -45.4941 -2.13287 -22.4276
ltibia 52.1593
lfoot -0.230975 -18.9702
ltoes -14.2089
212
root 3.09342 17.8749 -1.45908 -136.822 -95.0336 150.354
lowerback 14.9885 1.21936 6.82876
upperback 1.32894 2.64699 -0.262234
thorax -6.66486 1.05932 -4.67805
lowerneck -2.89134 0.799207 0.858789
upperneck 7.29203 1.20263 -3.164
head 2.85499 0.496317 -1.12949
rclavicle -2.82274e-014 6.95746e-015
rhumerus -46.458 1.1715 -76.3702
rradius 27.3693
rwrist 22.661
rhand -32.7121 -34.6675
rfingers 7.12502
rthumb -5.93622 -64.5643
lclavicle -2.82274e-014 6.95746e-015
lhumerus -20.4092 17.2688 19.4365
lradius 143.541
lwrist 3.411
lhand -1.12434 17.2838
lfingers 7.12502
lthumb 24.513 45.7349
rfemur -2.91136 -9.17758 28.6101
rtibia 23.1281
rfoot -13.8788 -2.32748
rtoes -30.6541
lfemur -43.6144 -2.29854 -22.9064
ltibia 49.376
lfoot 0.514617 -18.5567
ltoes -16.2867
213
root 2.91944 17.9217 -1.44696 -139.448 -95.1524 152.739
lowerback 14.0537 1.25442 6.55313
upperback 1.36832 2.58649 -0.215581
thorax -6.12605 1.06452 -4.41908
lowerneck -2.94058 0.769071 1.0253
upperneck 7.80677 1.14835 -3.01462
head 3.03774 0.472467 -1.11551
rclavicle 3.598e-014 1.37161e-014
rhumerus -47.1413 -0.0604377 -75.6199
rradius 26.9974
rwrist 23.2431
rhand -33.5181 -35.2153
rfingers 7.12502
rthumb -6.71442 -65.0888
lclavicle 3.598e-014 1.37161e-014
lhumerus -21.1068 16.2032 20.4561
lradius 144.238
lwrist 3.00598
lhand -1.18788 17.073
lfingers 7.12502
lthumb 24.4521 45.5323
rfemur -3.57926 -9.28485 28.207
rtibia 25.8146
rfoot -12.4818 -1.42603
rtoes -31.9196
lfemur -41.5642 -2.27808 -23.4081
ltibia 46.9166
lfoot 2.20775 -17.5083
ltoes -12.6622
214
root 2.74961 17.9353 -1.43198 -140.161 -95.123 153.401
lowerback 12.8361 1.31785 6.25561
upperback 1.41368 2.54505 -0.207585
thorax -5.42027 1.08412 -4.18275
lowerneck -2.53921 0.612616 1.4407
upperneck 7.84439 0.915797 -3.0281
head 2.97355 0.370437 -1.20062
rclavicle 1.98785e-014 -8.54774e-015
rhumerus -47.4497 -1.20011 -74.9936
rradius 26.5476
rwrist 23.3737
rhand -34.1733 -35.6361
rfingers 7.12502
rthumb -7.34682 -65.4885
lclavicle 1.98785e-014 -8.54774e-015
lhumerus -21.8403 15.4868 21.1696
lradius 144.892
lwrist 2.52767
lhand -1.31678 16.9632
lfingers 7.12502
lthumb 24.3285 45.4392
rfemur -5.04214 -9.30184 27.8175
rtibia 29.5318
rfoot -11.2241 -0.160671
rtoes -32.5447
lfemur -39.8016 -2.17408 -23.8444
ltibia 44.8884
lfoot 3.2291 -16.1239
ltoes -10.1558
215
root 2.59317 17.9137 -1.41418 -139.134 -94.8859 152.149
lowerback 11.9265 1.36088 5.92834
upperback 1.52224 2.49385 -0.232597
thorax -4.8192 1.09191 -3.97635
lowerneck -2.71421 0.66854 1.52978
upperneck 8.3099 0.955695 -2.59859
head 3.16262 0.402736 -1.0782
rclavicle 1.87852e-014 2.22639e-014
rhumerus -47.3592 -2.16777 -74.542
rradius 26.1042
rwrist 22.9848
rhand -34.4881 -35.6299
rfingers 7.12502
rthumb -7.65073 -65.4715
lclavicle 1.87852e-014 2.22639e-014
lhumerus -22.72 15.2826 21.4006
lradius 145.593
lwrist 2.00886
lhand -1.33148 16.8331
lfingers 7.12502
lthumb 24.3144 45.311
rfemur -6.88607 -9.19902 27.3494
rtibia 34.1985
rfoot -9.70309 1.31325
rtoes -32.3419
lfemur -38.023 -2.12715 -24.1477
ltibia 43.3904
lfoot 2.31994 -15.1792
ltoes -5.39131
216
root 2.43961 17.8591 -1.3849 -132.133 -94.3333 144.767
lowerback 11.2706 1.48892 5.75263
upperback 1.59594 2.5959 -0.278223
thorax -4.37201 1.16347 -3.91093
lowerneck -2.19089 0.612544 2.15716
upperneck 8.23261 0.852089 -2.64672
head 3.04142 0.3712 -1.20642
rclavicle 1.63997e-015 -1.61016e-014
rhumerus -47.2523 -2.87004 -74.2784
rradius 25.9334
rwrist 22.5962
rhand -34.7643 -35.387
rfingers 7.12502
rthumb -7.91728 -65.2187
lclavicle 1.63997e-015 -1.61016e-014
lhumerus -23.8667 15.4243 20.9781
lradius 146.378
lwrist 1.46198
lhand -1.29878 16.6279
lfingers 7.12502
lthumb 24.3458 45.1015
rfemur -9.02397 -8.8631 26.8722
rtibia 39.6975
rfoot -7.70045 2.94011
rtoes -31.7015
lfemur -36.2709 -2.21778 -24.1082
ltibia 42.3407
lfoot -0.0539847 -15.4043
ltoes -5.00855
